# xmcd
#
# Track frame offsets: 
#        150
#        7307
#        17010
#        36440
#        55146
#        75891
#        94733
#        111440
#
# Disc length: 1674 seconds
#
# Revision: 0
# Processed by: cddbd v1.5.2PL0 Copyright (c) Steve Scherf et al.
# Submitted via: ExactAudioCopy v0.99pb5
#
DISCID=5d068808
DTITLE=Magicmick - To The Rescue
DYEAR=2009
DGENRE=Rap
TTITLE0=To The Rescue
TTITLE1=Magicmick Sound
TTITLE2=Superhero
TTITLE3=Rock Steady
TTITLE4=Turntable King of Rhythm and Illness
TTITLE5=Magik Girl
TTITLE6=Bang This Remake
TTITLE7=Unlisted Bonus Track
EXTD=
EXTT0=
EXTT1=
EXTT2=
EXTT3=
EXTT4=
EXTT5=
EXTT6=
EXTT7=
PLAYORDER=
